<mxfile host="app.diagrams.net" agent="Mozilla/5.0 (Macintosh; Intel Mac OS X 10.15; rv:131.0) Gecko/20100101 Firefox/131.0" version="25.0.3">
  <diagram name="Page-1" id="c7558073-3199-34d8-9f00-42111426c3f3">
    <mxGraphModel dx="1199" dy="1044" grid="1" gridSize="10" guides="1" tooltips="1" connect="1" arrows="1" fold="1" page="1" pageScale="1" pageWidth="826" pageHeight="1169" background="none" math="0" shadow="0">
      <root>
        <mxCell id="0" />
        <mxCell id="1" parent="0" />
        <mxCell id="rK0kfYm4vBZ5VeYGZ0FQ-104" value="r0[4..0]" style="edgeStyle=orthogonalEdgeStyle;rounded=0;orthogonalLoop=1;jettySize=auto;html=1;exitX=0;exitY=0.25;exitDx=0;exitDy=0;entryX=1;entryY=0.25;entryDx=0;entryDy=0;" edge="1" parent="1" source="rK0kfYm4vBZ5VeYGZ0FQ-97" target="rK0kfYm4vBZ5VeYGZ0FQ-98">
          <mxGeometry x="-0.2157" y="-15" relative="1" as="geometry">
            <mxPoint x="410" y="300" as="targetPoint" />
            <mxPoint as="offset" />
          </mxGeometry>
        </mxCell>
        <mxCell id="rK0kfYm4vBZ5VeYGZ0FQ-111" style="edgeStyle=orthogonalEdgeStyle;rounded=0;orthogonalLoop=1;jettySize=auto;html=1;exitX=1;exitY=0.75;exitDx=0;exitDy=0;entryX=0;entryY=0.75;entryDx=0;entryDy=0;" edge="1" parent="1" source="rK0kfYm4vBZ5VeYGZ0FQ-97" target="rK0kfYm4vBZ5VeYGZ0FQ-102">
          <mxGeometry relative="1" as="geometry" />
        </mxCell>
        <mxCell id="rK0kfYm4vBZ5VeYGZ0FQ-122" value="r0r[4..0]" style="edgeLabel;html=1;align=center;verticalAlign=middle;resizable=0;points=[];fontFamily=Helvetica;fontSize=11;fontColor=default;labelBackgroundColor=default;" vertex="1" connectable="0" parent="rK0kfYm4vBZ5VeYGZ0FQ-111">
          <mxGeometry x="0.0038" relative="1" as="geometry">
            <mxPoint y="13" as="offset" />
          </mxGeometry>
        </mxCell>
        <mxCell id="rK0kfYm4vBZ5VeYGZ0FQ-97" value="Rotor 0" style="rounded=1;whiteSpace=wrap;html=1;fillColor=#fff2cc;strokeColor=#d6b656;" vertex="1" parent="1">
          <mxGeometry x="460" y="250" width="79" height="210" as="geometry" />
        </mxCell>
        <mxCell id="rK0kfYm4vBZ5VeYGZ0FQ-105" style="edgeStyle=orthogonalEdgeStyle;rounded=0;orthogonalLoop=1;jettySize=auto;html=1;exitX=0;exitY=0.25;exitDx=0;exitDy=0;entryX=1;entryY=0.25;entryDx=0;entryDy=0;" edge="1" parent="1" source="rK0kfYm4vBZ5VeYGZ0FQ-98" target="rK0kfYm4vBZ5VeYGZ0FQ-99">
          <mxGeometry relative="1" as="geometry" />
        </mxCell>
        <mxCell id="rK0kfYm4vBZ5VeYGZ0FQ-123" value="r1[4..0]" style="edgeLabel;html=1;align=center;verticalAlign=middle;resizable=0;points=[];fontFamily=Helvetica;fontSize=11;fontColor=default;labelBackgroundColor=default;" vertex="1" connectable="0" parent="rK0kfYm4vBZ5VeYGZ0FQ-105">
          <mxGeometry x="-0.3364" y="2" relative="1" as="geometry">
            <mxPoint x="-10" y="-17" as="offset" />
          </mxGeometry>
        </mxCell>
        <mxCell id="rK0kfYm4vBZ5VeYGZ0FQ-110" style="edgeStyle=orthogonalEdgeStyle;rounded=0;orthogonalLoop=1;jettySize=auto;html=1;exitX=1;exitY=0.75;exitDx=0;exitDy=0;entryX=0;entryY=0.75;entryDx=0;entryDy=0;" edge="1" parent="1" source="rK0kfYm4vBZ5VeYGZ0FQ-98" target="rK0kfYm4vBZ5VeYGZ0FQ-97">
          <mxGeometry relative="1" as="geometry" />
        </mxCell>
        <mxCell id="rK0kfYm4vBZ5VeYGZ0FQ-132" value="r1r[4..0]" style="edgeLabel;html=1;align=center;verticalAlign=middle;resizable=0;points=[];fontFamily=Helvetica;fontSize=11;fontColor=default;labelBackgroundColor=default;" vertex="1" connectable="0" parent="rK0kfYm4vBZ5VeYGZ0FQ-110">
          <mxGeometry x="-0.066" y="1" relative="1" as="geometry">
            <mxPoint y="14" as="offset" />
          </mxGeometry>
        </mxCell>
        <mxCell id="rK0kfYm4vBZ5VeYGZ0FQ-98" value="Rotor 1" style="rounded=1;whiteSpace=wrap;html=1;fillColor=#fff2cc;strokeColor=#d6b656;" vertex="1" parent="1">
          <mxGeometry x="330" y="250" width="79" height="210" as="geometry" />
        </mxCell>
        <mxCell id="rK0kfYm4vBZ5VeYGZ0FQ-106" style="edgeStyle=orthogonalEdgeStyle;rounded=0;orthogonalLoop=1;jettySize=auto;html=1;exitX=0;exitY=0.25;exitDx=0;exitDy=0;entryX=1;entryY=0.25;entryDx=0;entryDy=0;" edge="1" parent="1" source="rK0kfYm4vBZ5VeYGZ0FQ-99" target="rK0kfYm4vBZ5VeYGZ0FQ-101">
          <mxGeometry relative="1" as="geometry">
            <mxPoint x="196" y="304" as="sourcePoint" />
            <mxPoint x="134" y="304" as="targetPoint" />
          </mxGeometry>
        </mxCell>
        <mxCell id="rK0kfYm4vBZ5VeYGZ0FQ-124" value="r2[4..0]" style="edgeLabel;html=1;align=center;verticalAlign=middle;resizable=0;points=[];fontFamily=Helvetica;fontSize=11;fontColor=default;labelBackgroundColor=default;" vertex="1" connectable="0" parent="rK0kfYm4vBZ5VeYGZ0FQ-106">
          <mxGeometry x="-0.1935" y="2" relative="1" as="geometry">
            <mxPoint y="-17" as="offset" />
          </mxGeometry>
        </mxCell>
        <mxCell id="rK0kfYm4vBZ5VeYGZ0FQ-109" value="r2r[4..0]" style="edgeStyle=orthogonalEdgeStyle;rounded=0;orthogonalLoop=1;jettySize=auto;html=1;exitX=1;exitY=0.75;exitDx=0;exitDy=0;entryX=0;entryY=0.75;entryDx=0;entryDy=0;" edge="1" parent="1" source="rK0kfYm4vBZ5VeYGZ0FQ-99" target="rK0kfYm4vBZ5VeYGZ0FQ-98">
          <mxGeometry y="-12" relative="1" as="geometry">
            <mxPoint as="offset" />
          </mxGeometry>
        </mxCell>
        <mxCell id="rK0kfYm4vBZ5VeYGZ0FQ-99" value="Rotor 2" style="rounded=1;whiteSpace=wrap;html=1;fillColor=#fff2cc;strokeColor=#d6b656;" vertex="1" parent="1">
          <mxGeometry x="196" y="250" width="74" height="210" as="geometry" />
        </mxCell>
        <mxCell id="rK0kfYm4vBZ5VeYGZ0FQ-108" style="edgeStyle=orthogonalEdgeStyle;rounded=0;orthogonalLoop=1;jettySize=auto;html=1;exitX=1;exitY=0.75;exitDx=0;exitDy=0;entryX=0;entryY=0.75;entryDx=0;entryDy=0;" edge="1" parent="1" source="rK0kfYm4vBZ5VeYGZ0FQ-101" target="rK0kfYm4vBZ5VeYGZ0FQ-99">
          <mxGeometry relative="1" as="geometry" />
        </mxCell>
        <mxCell id="rK0kfYm4vBZ5VeYGZ0FQ-131" value="ref[4..0]" style="edgeLabel;html=1;align=center;verticalAlign=middle;resizable=0;points=[];fontFamily=Helvetica;fontSize=11;fontColor=default;labelBackgroundColor=default;" vertex="1" connectable="0" parent="rK0kfYm4vBZ5VeYGZ0FQ-108">
          <mxGeometry x="-0.1584" relative="1" as="geometry">
            <mxPoint y="13" as="offset" />
          </mxGeometry>
        </mxCell>
        <mxCell id="rK0kfYm4vBZ5VeYGZ0FQ-101" value="Reflector" style="rounded=1;whiteSpace=wrap;html=1;fillColor=#d5e8d4;strokeColor=#82b366;" vertex="1" parent="1">
          <mxGeometry x="90" y="250" width="44" height="210" as="geometry" />
        </mxCell>
        <mxCell id="rK0kfYm4vBZ5VeYGZ0FQ-103" style="edgeStyle=orthogonalEdgeStyle;rounded=0;orthogonalLoop=1;jettySize=auto;html=1;exitX=0;exitY=0.25;exitDx=0;exitDy=0;entryX=1;entryY=0.25;entryDx=0;entryDy=0;" edge="1" parent="1" source="rK0kfYm4vBZ5VeYGZ0FQ-102" target="rK0kfYm4vBZ5VeYGZ0FQ-97">
          <mxGeometry relative="1" as="geometry">
            <mxPoint x="550" y="310" as="targetPoint" />
          </mxGeometry>
        </mxCell>
        <mxCell id="rK0kfYm4vBZ5VeYGZ0FQ-121" value="p[4..0]" style="edgeLabel;html=1;align=center;verticalAlign=middle;resizable=0;points=[];fontFamily=Helvetica;fontSize=11;fontColor=default;labelBackgroundColor=default;" vertex="1" connectable="0" parent="rK0kfYm4vBZ5VeYGZ0FQ-103">
          <mxGeometry x="-0.1319" y="1" relative="1" as="geometry">
            <mxPoint y="-16" as="offset" />
          </mxGeometry>
        </mxCell>
        <mxCell id="rK0kfYm4vBZ5VeYGZ0FQ-112" style="rounded=0;orthogonalLoop=1;jettySize=auto;html=1;fillColor=#d5e8d4;strokeColor=#82b366;strokeWidth=4;entryX=1;entryY=0.25;entryDx=0;entryDy=0;" edge="1" parent="1" target="rK0kfYm4vBZ5VeYGZ0FQ-102">
          <mxGeometry relative="1" as="geometry">
            <mxPoint x="690" y="320" as="targetPoint" />
            <mxPoint x="730" y="303" as="sourcePoint" />
          </mxGeometry>
        </mxCell>
        <mxCell id="rK0kfYm4vBZ5VeYGZ0FQ-114" value="in[4..0]" style="edgeLabel;html=1;align=center;verticalAlign=middle;resizable=0;points=[];" vertex="1" connectable="0" parent="rK0kfYm4vBZ5VeYGZ0FQ-112">
          <mxGeometry x="0.3426" y="2" relative="1" as="geometry">
            <mxPoint x="15" y="-35" as="offset" />
          </mxGeometry>
        </mxCell>
        <mxCell id="rK0kfYm4vBZ5VeYGZ0FQ-133" style="edgeStyle=orthogonalEdgeStyle;shape=connector;rounded=0;orthogonalLoop=1;jettySize=auto;html=1;exitX=1;exitY=0.75;exitDx=0;exitDy=0;entryX=0.75;entryY=1;entryDx=0;entryDy=0;strokeColor=#330000;strokeWidth=1;align=center;verticalAlign=middle;fontFamily=Helvetica;fontSize=11;fontColor=default;labelBackgroundColor=default;endArrow=classic;fillColor=#d5e8d4;" edge="1" parent="1" source="rK0kfYm4vBZ5VeYGZ0FQ-102" target="rK0kfYm4vBZ5VeYGZ0FQ-115">
          <mxGeometry relative="1" as="geometry" />
        </mxCell>
        <mxCell id="rK0kfYm4vBZ5VeYGZ0FQ-102" value="Plugboard" style="rounded=1;whiteSpace=wrap;html=1;fillColor=#dae8fc;strokeColor=#6c8ebf;" vertex="1" parent="1">
          <mxGeometry x="610" y="250" width="84" height="210" as="geometry" />
        </mxCell>
        <mxCell id="rK0kfYm4vBZ5VeYGZ0FQ-138" style="edgeStyle=orthogonalEdgeStyle;shape=connector;rounded=0;orthogonalLoop=1;jettySize=auto;html=1;exitX=0.25;exitY=1;exitDx=0;exitDy=0;entryX=0.5;entryY=0;entryDx=0;entryDy=0;strokeColor=#b85450;strokeWidth=1;align=center;verticalAlign=middle;fontFamily=Helvetica;fontSize=11;fontColor=default;labelBackgroundColor=default;endArrow=classic;fillColor=#f8cecc;" edge="1" parent="1" source="rK0kfYm4vBZ5VeYGZ0FQ-113" target="rK0kfYm4vBZ5VeYGZ0FQ-99">
          <mxGeometry relative="1" as="geometry" />
        </mxCell>
        <mxCell id="rK0kfYm4vBZ5VeYGZ0FQ-141" style="edgeStyle=orthogonalEdgeStyle;shape=connector;rounded=0;orthogonalLoop=1;jettySize=auto;html=1;exitX=0.5;exitY=1;exitDx=0;exitDy=0;strokeColor=#b85450;strokeWidth=1;align=center;verticalAlign=middle;fontFamily=Helvetica;fontSize=11;fontColor=default;labelBackgroundColor=default;endArrow=classic;fillColor=#f8cecc;" edge="1" parent="1" source="rK0kfYm4vBZ5VeYGZ0FQ-113" target="rK0kfYm4vBZ5VeYGZ0FQ-98">
          <mxGeometry relative="1" as="geometry" />
        </mxCell>
        <mxCell id="rK0kfYm4vBZ5VeYGZ0FQ-142" style="edgeStyle=orthogonalEdgeStyle;shape=connector;rounded=0;orthogonalLoop=1;jettySize=auto;html=1;exitX=0.75;exitY=1;exitDx=0;exitDy=0;entryX=0.5;entryY=0;entryDx=0;entryDy=0;strokeColor=#b85450;strokeWidth=1;align=center;verticalAlign=middle;fontFamily=Helvetica;fontSize=11;fontColor=default;labelBackgroundColor=default;endArrow=classic;fillColor=#f8cecc;" edge="1" parent="1" source="rK0kfYm4vBZ5VeYGZ0FQ-113" target="rK0kfYm4vBZ5VeYGZ0FQ-97">
          <mxGeometry relative="1" as="geometry" />
        </mxCell>
        <mxCell id="rK0kfYm4vBZ5VeYGZ0FQ-113" value="FSM" style="rounded=0;whiteSpace=wrap;html=1;fillColor=#f8cecc;strokeColor=#b85450;" vertex="1" parent="1">
          <mxGeometry x="300" y="100" width="120" height="60" as="geometry" />
        </mxCell>
        <mxCell id="rK0kfYm4vBZ5VeYGZ0FQ-115" value="LCD" style="rounded=0;whiteSpace=wrap;html=1;fillColor=#f8cecc;strokeColor=#b85450;" vertex="1" parent="1">
          <mxGeometry x="670" y="100" width="120" height="60" as="geometry" />
        </mxCell>
        <mxCell id="rK0kfYm4vBZ5VeYGZ0FQ-116" style="rounded=0;orthogonalLoop=1;jettySize=auto;html=1;entryX=0.5;entryY=0;entryDx=0;entryDy=0;fillColor=#d5e8d4;strokeColor=#82b366;strokeWidth=4;" edge="1" parent="1" target="rK0kfYm4vBZ5VeYGZ0FQ-113">
          <mxGeometry relative="1" as="geometry">
            <mxPoint x="353" y="50" as="targetPoint" />
            <mxPoint x="360" y="50" as="sourcePoint" />
          </mxGeometry>
        </mxCell>
        <mxCell id="rK0kfYm4vBZ5VeYGZ0FQ-117" value="cmd[2..0]" style="edgeLabel;html=1;align=center;verticalAlign=middle;resizable=0;points=[];" vertex="1" connectable="0" parent="rK0kfYm4vBZ5VeYGZ0FQ-116">
          <mxGeometry x="0.3426" y="2" relative="1" as="geometry">
            <mxPoint x="28" y="-14" as="offset" />
          </mxGeometry>
        </mxCell>
        <mxCell id="rK0kfYm4vBZ5VeYGZ0FQ-119" style="rounded=0;orthogonalLoop=1;jettySize=auto;html=1;fillColor=#d5e8d4;strokeColor=#82b366;strokeWidth=4;" edge="1" parent="1">
          <mxGeometry relative="1" as="geometry">
            <mxPoint x="730" y="40" as="targetPoint" />
            <mxPoint x="730.5" y="100" as="sourcePoint" />
          </mxGeometry>
        </mxCell>
        <mxCell id="rK0kfYm4vBZ5VeYGZ0FQ-120" value="lcd[6..0]" style="edgeLabel;html=1;align=center;verticalAlign=middle;resizable=0;points=[];" vertex="1" connectable="0" parent="rK0kfYm4vBZ5VeYGZ0FQ-119">
          <mxGeometry x="0.3426" y="2" relative="1" as="geometry">
            <mxPoint x="28" y="10" as="offset" />
          </mxGeometry>
        </mxCell>
        <mxCell id="rK0kfYm4vBZ5VeYGZ0FQ-125" value="" style="edgeStyle=isometricEdgeStyle;endArrow=none;html=1;rounded=0;strokeColor=#9673a6;strokeWidth=2;align=center;verticalAlign=middle;fontFamily=Helvetica;fontSize=11;fontColor=default;labelBackgroundColor=default;fillColor=#e1d5e7;exitX=0;exitY=0.25;exitDx=0;exitDy=0;" edge="1" parent="1" source="rK0kfYm4vBZ5VeYGZ0FQ-99">
          <mxGeometry width="50" height="100" relative="1" as="geometry">
            <mxPoint x="190" y="300" as="sourcePoint" />
            <mxPoint x="270" y="301.05" as="targetPoint" />
          </mxGeometry>
        </mxCell>
        <mxCell id="rK0kfYm4vBZ5VeYGZ0FQ-126" value="" style="edgeStyle=isometricEdgeStyle;endArrow=none;html=1;rounded=0;strokeColor=#9673a6;strokeWidth=2;align=center;verticalAlign=middle;fontFamily=Helvetica;fontSize=11;fontColor=default;labelBackgroundColor=default;fillColor=#e1d5e7;exitX=0;exitY=0.25;exitDx=0;exitDy=0;" edge="1" parent="1">
          <mxGeometry width="50" height="100" relative="1" as="geometry">
            <mxPoint x="332.5" y="301.17" as="sourcePoint" />
            <mxPoint x="406.5" y="299.22" as="targetPoint" />
          </mxGeometry>
        </mxCell>
        <mxCell id="rK0kfYm4vBZ5VeYGZ0FQ-127" value="" style="edgeStyle=isometricEdgeStyle;endArrow=none;html=1;rounded=0;strokeColor=#9673a6;strokeWidth=2;align=center;verticalAlign=middle;fontFamily=Helvetica;fontSize=11;fontColor=default;labelBackgroundColor=default;fillColor=#e1d5e7;exitX=0;exitY=0.25;exitDx=0;exitDy=0;" edge="1" parent="1">
          <mxGeometry width="50" height="100" relative="1" as="geometry">
            <mxPoint x="462.5" y="301.17" as="sourcePoint" />
            <mxPoint x="536.5" y="299.22" as="targetPoint" />
          </mxGeometry>
        </mxCell>
        <mxCell id="rK0kfYm4vBZ5VeYGZ0FQ-128" value="" style="edgeStyle=isometricEdgeStyle;endArrow=none;html=1;rounded=0;strokeColor=#9673a6;strokeWidth=2;align=center;verticalAlign=middle;fontFamily=Helvetica;fontSize=11;fontColor=default;labelBackgroundColor=default;fillColor=#e1d5e7;exitX=0;exitY=0.25;exitDx=0;exitDy=0;" edge="1" parent="1">
          <mxGeometry width="50" height="100" relative="1" as="geometry">
            <mxPoint x="196" y="411.17" as="sourcePoint" />
            <mxPoint x="270" y="409.22" as="targetPoint" />
          </mxGeometry>
        </mxCell>
        <mxCell id="rK0kfYm4vBZ5VeYGZ0FQ-129" value="" style="edgeStyle=isometricEdgeStyle;endArrow=none;html=1;rounded=0;strokeColor=#9673a6;strokeWidth=2;align=center;verticalAlign=middle;fontFamily=Helvetica;fontSize=11;fontColor=default;labelBackgroundColor=default;fillColor=#e1d5e7;exitX=0;exitY=0.25;exitDx=0;exitDy=0;" edge="1" parent="1">
          <mxGeometry width="50" height="100" relative="1" as="geometry">
            <mxPoint x="332.5" y="411.17" as="sourcePoint" />
            <mxPoint x="406.5" y="409.22" as="targetPoint" />
          </mxGeometry>
        </mxCell>
        <mxCell id="rK0kfYm4vBZ5VeYGZ0FQ-130" value="" style="edgeStyle=isometricEdgeStyle;endArrow=none;html=1;rounded=0;strokeColor=#9673a6;strokeWidth=2;align=center;verticalAlign=middle;fontFamily=Helvetica;fontSize=11;fontColor=default;labelBackgroundColor=default;fillColor=#e1d5e7;exitX=0;exitY=0.25;exitDx=0;exitDy=0;" edge="1" parent="1">
          <mxGeometry width="50" height="100" relative="1" as="geometry">
            <mxPoint x="462.5" y="411.17" as="sourcePoint" />
            <mxPoint x="536.5" y="409.22" as="targetPoint" />
          </mxGeometry>
        </mxCell>
        <mxCell id="rK0kfYm4vBZ5VeYGZ0FQ-134" value="" style="endArrow=classic;html=1;rounded=0;strokeColor=#82b366;strokeWidth=4;align=center;verticalAlign=middle;fontFamily=Helvetica;fontSize=11;fontColor=default;labelBackgroundColor=default;fillColor=#d5e8d4;edgeStyle=orthogonalEdgeStyle;" edge="1" parent="1">
          <mxGeometry width="50" height="50" relative="1" as="geometry">
            <mxPoint x="760" y="190" as="sourcePoint" />
            <mxPoint x="650" y="40" as="targetPoint" />
          </mxGeometry>
        </mxCell>
        <mxCell id="rK0kfYm4vBZ5VeYGZ0FQ-135" value="dout[4..0]" style="edgeLabel;html=1;align=center;verticalAlign=middle;resizable=0;points=[];fontFamily=Helvetica;fontSize=11;fontColor=default;labelBackgroundColor=default;" vertex="1" connectable="0" parent="rK0kfYm4vBZ5VeYGZ0FQ-134">
          <mxGeometry x="0.3208" relative="1" as="geometry">
            <mxPoint x="-30" y="-55" as="offset" />
          </mxGeometry>
        </mxCell>
        <mxCell id="rK0kfYm4vBZ5VeYGZ0FQ-136" value="" style="endArrow=classic;html=1;rounded=0;strokeColor=#82b366;strokeWidth=1;align=center;verticalAlign=middle;fontFamily=Helvetica;fontSize=11;fontColor=default;labelBackgroundColor=default;fillColor=#d5e8d4;edgeStyle=orthogonalEdgeStyle;exitX=1;exitY=0.5;exitDx=0;exitDy=0;" edge="1" parent="1" source="rK0kfYm4vBZ5VeYGZ0FQ-113">
          <mxGeometry width="50" height="50" relative="1" as="geometry">
            <mxPoint x="770" y="200" as="sourcePoint" />
            <mxPoint x="540" y="40" as="targetPoint" />
          </mxGeometry>
        </mxCell>
        <mxCell id="rK0kfYm4vBZ5VeYGZ0FQ-137" value="ready" style="edgeLabel;html=1;align=center;verticalAlign=middle;resizable=0;points=[];fontFamily=Helvetica;fontSize=11;fontColor=default;labelBackgroundColor=default;" vertex="1" connectable="0" parent="rK0kfYm4vBZ5VeYGZ0FQ-136">
          <mxGeometry x="0.3208" relative="1" as="geometry">
            <mxPoint x="-30" y="-55" as="offset" />
          </mxGeometry>
        </mxCell>
        <mxCell id="rK0kfYm4vBZ5VeYGZ0FQ-143" style="edgeStyle=orthogonalEdgeStyle;shape=connector;rounded=0;orthogonalLoop=1;jettySize=auto;html=1;exitX=1;exitY=0.75;exitDx=0;exitDy=0;entryX=0.12;entryY=-0.006;entryDx=0;entryDy=0;strokeColor=#b85450;strokeWidth=1;align=center;verticalAlign=middle;fontFamily=Helvetica;fontSize=11;fontColor=default;labelBackgroundColor=default;endArrow=classic;fillColor=#f8cecc;entryPerimeter=0;" edge="1" parent="1" source="rK0kfYm4vBZ5VeYGZ0FQ-113" target="rK0kfYm4vBZ5VeYGZ0FQ-102">
          <mxGeometry relative="1" as="geometry">
            <mxPoint x="400" y="170" as="sourcePoint" />
            <mxPoint x="510" y="260" as="targetPoint" />
          </mxGeometry>
        </mxCell>
      </root>
    </mxGraphModel>
  </diagram>
</mxfile>
